HIERARCHY
ROOT Hips
{
    OFFSET   0.000000   0.000000   0.000000
    CHANNELS 6 Xposition Yposition Zposition Zrotation Xrotation Yrotation
    JOINT Chest
    {
        OFFSET   0.000000   8.007230   0.000000
        CHANNELS 3 Zrotation Xrotation Yrotation
        JOINT Chest2
        {
            OFFSET   0.000000  22.077100   0.000000
            CHANNELS 3 Zrotation Xrotation Yrotation
            JOINT Neck
            {
                OFFSET   0.000000  23.254800  -0.000021
                CHANNELS 3 Zrotation Xrotation Yrotation
                JOINT Head
                {
                    OFFSET   0.000000  14.370000   1.956610
                    CHANNELS 3 Zrotation Xrotation Yrotation
                    End Site
                    {
                        OFFSET   0.000000  19.566000   0.000000
                    }
                }
            }
            JOINT LeftCollar
            {
                OFFSET   3.911900  19.017000  -0.467063
                CHANNELS 3 Zrotation Xrotation Yrotation
                JOINT LeftShoulder
                {
                    OFFSET  10.383700   0.000000   0.000000
                    CHANNELS 3 Zrotation Xrotation Yrotation
                    JOINT LeftElbow
                    {
                        OFFSET  26.662100   0.001529   0.000325
                        CHANNELS 3 Zrotation Xrotation Yrotation
                        JOINT LeftWrist
                        {
                            OFFSET  28.869000  -0.000011  -0.000096
                            CHANNELS 3 Zrotation Xrotation Yrotation
                            JOINT LeftFinger0
                            {
                                OFFSET   2.044650  -2.323460   3.252850
                                CHANNELS 3 Zrotation Xrotation Yrotation
                                JOINT LeftFinger01
                                {
                                    OFFSET   3.088130   0.000000   0.000000
                                    CHANNELS 3 Zrotation Xrotation Yrotation
                                    JOINT LeftFinger02
                                    {
                                        OFFSET   2.639460   0.000000   0.000000
                                        CHANNELS 3 Zrotation Xrotation Yrotation
                                        End Site
                                        {
                                            OFFSET   2.582190   0.000000   0.000000
                                        }
                                    }
                                }
                            }
                            JOINT LeftFinger1
                            {
                                OFFSET   8.364480   0.000000   3.252850
                                CHANNELS 3 Zrotation Xrotation Yrotation
                                JOINT LeftFinger11
                                {
                                    OFFSET   4.646930   0.000000   0.000000
                                    CHANNELS 3 Zrotation Xrotation Yrotation
                                    JOINT LeftFinger12
                                    {
                                        OFFSET   2.323460   0.000000   0.000000
                                        CHANNELS 3 Zrotation Xrotation Yrotation
                                        End Site
                                        {
                                            OFFSET   2.273050   0.000000   0.000000
                                        }
                                    }
                                }
                            }
                            JOINT LeftFinger2
                            {
                                OFFSET   8.364480   0.000016   1.078090
                                CHANNELS 3 Zrotation Xrotation Yrotation
                                JOINT LeftFinger21
                                {
                                    OFFSET   5.111620   0.000000   0.000000
                                    CHANNELS 3 Zrotation Xrotation Yrotation
                                    JOINT LeftFinger22
                                    {
                                        OFFSET   2.788160   0.000017   0.000000
                                        CHANNELS 3 Zrotation Xrotation Yrotation
                                        End Site
                                        {
                                            OFFSET   2.727660   0.000000   0.000000
                                        }
                                    }
                                }
                            }
                            JOINT LeftFinger3
                            {
                                OFFSET   7.899780   0.000015  -1.078090
                                CHANNELS 3 Zrotation Xrotation Yrotation
                                JOINT LeftFinger31
                                {
                                    OFFSET   4.646920   0.000000   0.000000
                                    CHANNELS 3 Zrotation Xrotation Yrotation
                                    JOINT LeftFinger32
                                    {
                                        OFFSET   2.323470   0.000000   0.000000
                                        CHANNELS 3 Zrotation Xrotation Yrotation
                                        End Site
                                        {
                                            OFFSET   2.273050   0.000000   0.000000
                                        }
                                    }
                                }
                            }
                            JOINT LeftFinger4
                            {
                                OFFSET   7.435090   0.000000  -3.252850
                                CHANNELS 3 Zrotation Xrotation Yrotation
                                JOINT LeftFinger41
                                {
                                    OFFSET   3.717550   0.000000   0.000000
                                    CHANNELS 3 Zrotation Xrotation Yrotation
                                    JOINT LeftFinger42
                                    {
                                        OFFSET   1.858760   0.000000   0.000000
                                        CHANNELS 3 Zrotation Xrotation Yrotation
                                        End Site
                                        {
                                            OFFSET   1.818440   0.000000   0.000000
                                        }
                                    }
                                }
                            }
                        }
                    }
                }
            }
            JOINT RightCollar
            {
                OFFSET  -3.911900  19.017000  -0.467062
                CHANNELS 3 Zrotation Xrotation Yrotation
                JOINT RightShoulder
                {
                    OFFSET -10.383700   0.000015   0.000000
                    CHANNELS 3 Zrotation Xrotation Yrotation
                    JOINT RightElbow
                    {
                        OFFSET -26.662100   0.001341   0.000385
                        CHANNELS 3 Zrotation Xrotation Yrotation
                        JOINT RightWrist
                        {
                            OFFSET -28.869000   0.000025  -0.000080
                            CHANNELS 3 Zrotation Xrotation Yrotation
                            JOINT RightFinger0
                            {
                                OFFSET  -2.044650  -2.323490   3.252850
                                CHANNELS 3 Zrotation Xrotation Yrotation
                                JOINT RightFinger01
                                {
                                    OFFSET  -3.088130   0.000000   0.000000
                                    CHANNELS 3 Zrotation Xrotation Yrotation
                                    JOINT RightFinger02
                                    {
                                        OFFSET  -2.639460   0.000000   0.000000
                                        CHANNELS 3 Zrotation Xrotation Yrotation
                                        End Site
                                        {
                                            OFFSET  -2.582190   0.000000   0.000000
                                        }
                                    }
                                }
                            }
                            JOINT RightFinger1
                            {
                                OFFSET  -8.364480   0.000000   3.252850
                                CHANNELS 3 Zrotation Xrotation Yrotation
                                JOINT RightFinger11
                                {
                                    OFFSET  -4.646930   0.000000   0.000000
                                    CHANNELS 3 Zrotation Xrotation Yrotation
                                    JOINT RightFinger12
                                    {
                                        OFFSET  -2.323470   0.000000   0.000000
                                        CHANNELS 3 Zrotation Xrotation Yrotation
                                        End Site
                                        {
                                            OFFSET  -2.273050   0.000000   0.000000
                                        }
                                    }
                                }
                            }
                            JOINT RightFinger2
                            {
                                OFFSET  -8.364480   0.000000   1.078090
                                CHANNELS 3 Zrotation Xrotation Yrotation
                                JOINT RightFinger21
                                {
                                    OFFSET  -5.111610   0.000000   0.000000
                                    CHANNELS 3 Zrotation Xrotation Yrotation
                                    JOINT RightFinger22
                                    {
                                        OFFSET  -2.788160   0.000000   0.000000
                                        CHANNELS 3 Zrotation Xrotation Yrotation
                                        End Site
                                        {
                                            OFFSET  -2.727660   0.000000   0.000000
                                        }
                                    }
                                }
                            }
                            JOINT RightFinger3
                            {
                                OFFSET  -7.899780   0.000000  -1.078090
                                CHANNELS 3 Zrotation Xrotation Yrotation
                                JOINT RightFinger31
                                {
                                    OFFSET  -4.646920   0.000000   0.000000
                                    CHANNELS 3 Zrotation Xrotation Yrotation
                                    JOINT RightFinger32
                                    {
                                        OFFSET  -2.323470   0.000000   0.000000
                                        CHANNELS 3 Zrotation Xrotation Yrotation
                                        End Site
                                        {
                                            OFFSET  -2.273050   0.000000   0.000000
                                        }
                                    }
                                }
                            }
                            JOINT RightFinger4
                            {
                                OFFSET  -7.435090   0.000000  -3.252850
                                CHANNELS 3 Zrotation Xrotation Yrotation
                                JOINT RightFinger41
                                {
                                    OFFSET  -3.717550   0.000000   0.000000
                                    CHANNELS 3 Zrotation Xrotation Yrotation
                                    JOINT RightFinger42
                                    {
                                        OFFSET  -1.858770   0.000000   0.000000
                                        CHANNELS 3 Zrotation Xrotation Yrotation
                                        End Site
                                        {
                                            OFFSET  -1.818440   0.000000   0.000000
                                        }
                                    }
                                }
                            }
                        }
                    }
                }
            }
        }
    }
    JOINT LeftHip
    {
        OFFSET   9.783010   0.000000   0.000000
        CHANNELS 3 Zrotation Xrotation Yrotation
        JOINT LeftKnee
        {
            OFFSET   0.000070 -41.789100   0.000028
            CHANNELS 3 Zrotation Xrotation Yrotation
            JOINT LeftAnkle
            {
                OFFSET   0.000087 -41.133200  -0.000100
                CHANNELS 3 Zrotation Xrotation Yrotation
                JOINT LeftToe
                {
                    OFFSET   0.000000  -6.358960  14.674500
                    CHANNELS 3 Zrotation Xrotation Yrotation
                    End Site
                    {
                        OFFSET   0.000000   0.000000   3.913200
                    }
                }
            }
        }
    }
    JOINT RightHip
    {
        OFFSET  -9.783020   0.000000   0.000000
        CHANNELS 3 Zrotation Xrotation Yrotation
        JOINT RightKnee
        {
            OFFSET   0.000044 -41.789100  -0.000870
            CHANNELS 3 Zrotation Xrotation Yrotation
            JOINT RightAnkle
            {
                OFFSET  -0.000090 -41.133200  -0.000245
                CHANNELS 3 Zrotation Xrotation Yrotation
                JOINT RightToe
                {
                    OFFSET   0.000000  -6.358960  14.674500
                    CHANNELS 3 Zrotation Xrotation Yrotation
                    End Site
                    {
                        OFFSET   0.000000   0.000000   3.913200
                    }
                }
            }
        }
    }
}
MOTION
Frames: 4
Frame Time:   0.016667
  4.762900  89.800700   0.628860  -1.265260 -17.119500  -0.901885  -0.941763   9.048100   1.990360  -2.248620  18.055800   4.213420  -3.095520   1.198080   0.064824  -5.091700   2.408350   4.799640  -1.844580   2.409900   2.136040 -56.483200 -21.641900 -15.334100  30.782900 -11.766000 -48.522000   2.606560  34.396800   3.856520  48.763300  37.132300 -74.818200 -19.729300  -0.005709  -0.001994  -4.864660  -0.000202  -0.000993 -12.334500   0.562679  -2.706290 -10.100600  -0.016792  -0.007097  -7.070420  -0.010948  -0.005627 -14.195800   0.512812  -2.139910 -14.203200  -0.013820  -0.008001  -9.459350  -0.008098  -0.005483 -11.611500  -0.775235   3.662740 -11.633900  -0.010887  -0.005029  -7.748170  -0.006661  -0.004154 -15.149300  -1.688990   6.153010 -22.855500  -0.009526  -0.008283 -15.221700  -0.004609  -0.008101   5.522870   6.293230   4.470800  53.941400 -27.452600  17.962300 -26.690000 -14.164800  27.675100 -10.108500  34.960200 -15.102100 -44.245400  24.709100  57.111700  13.045600  -0.004068  -0.002016   1.522820  -0.003965  -0.002104  13.258800  -0.603659  -2.541430  10.859100  -0.009316  -0.000176   7.601360  -0.004784  -0.003447   9.988070  -0.457791  -2.571760   9.998390  -0.003380  -0.002863   6.658930  -0.010372  -0.000090  11.136500  -0.859893  -4.323700  11.169200  -0.009848   0.001185   7.438690  -0.003623  -0.001452  13.367400  -2.172340  -9.037570  20.309800  -0.016144   0.006917  13.526300  -0.003594   0.003446  -2.186770  17.392200   3.068660  -1.059990   1.181930   9.689770  -1.521960  -4.166330   8.175120   0.000000   0.000000  -0.000000   0.922667  13.481700  -8.294440  -2.829430  12.980800  -8.733820  -6.437610  -4.609770   2.575310   0.000000   0.000000  -0.000000
  4.810710  89.808300   0.581043  -1.280350 -16.914300  -0.832094  -0.956009   8.982490   2.014440  -2.278410  17.923500   4.262410  -3.004150   1.085430   0.056880  -4.940530   2.182950   4.678250  -1.863640   2.255330   2.177800 -56.427500 -20.648100 -15.184900  30.373800 -11.058600 -48.720900   4.667550  34.029800   2.502890  48.758000  37.448900 -75.714900 -19.808800  -0.005739   0.003129  -4.904380   0.000015   0.001593 -13.599500   0.877179  -3.719480 -11.140500  -0.031860  -0.001877  -7.798320  -0.022206  -0.004153 -15.070300   0.804379  -3.097800 -15.075400  -0.035344  -0.004151 -10.040200  -0.022457  -0.005481 -12.286300  -0.584110   2.581170 -12.290200  -0.027049   0.000431  -8.185280  -0.017313  -0.002426 -15.595500  -1.442350   5.099170 -23.479200  -0.031750  -0.005450 -15.637100  -0.018839  -0.010033   5.675660   6.107470   4.494360  53.747900 -26.387200  17.625000 -26.276700 -14.412700  27.646800 -10.492300  34.518700 -15.036400 -44.068500  24.804400  57.617300  13.504800  -0.007857  -0.004702   1.752420  -0.004470  -0.002184  13.981000  -0.571406  -2.275010  11.448500  -0.010956  -0.000276   8.013930  -0.005099  -0.003447  10.768000  -0.442916  -2.304530  10.777200  -0.004892  -0.002985   7.177630  -0.011018  -0.000045  12.255900  -0.913751  -4.160590  12.289500  -0.010290   0.000947   8.184830  -0.003821  -0.001335  14.664400  -2.291060  -8.673050  22.258700  -0.017101   0.007535  14.824300  -0.004135   0.003455  -2.164590  17.179800   2.997470  -1.063710   1.103140   9.621000  -1.495590  -4.111550   8.229540  -0.000000   0.000000  -0.000000   0.950306  13.276600  -8.307030  -2.864880  12.923600  -8.730840  -6.450990  -4.472050   2.517740  -0.000000   0.000000   0.000000
  4.854280  89.817200   0.531977  -1.301890 -16.688100  -0.773223  -0.964139   8.913890   2.038050  -2.295470  17.785500   4.309300  -2.919840   0.964030   0.048989  -4.801010   1.939590   4.573520  -1.902340   2.060280   2.184550 -56.365000 -19.640100 -14.961900  29.797700 -10.292100 -48.915200   7.061070  33.227300   0.739263  48.584800  37.749200 -76.633000 -20.063100  -0.005856   0.013064  -5.031540   0.000231   0.006185 -15.054800   1.273880  -4.851510 -12.347800  -0.048835   0.007959  -8.643450  -0.034690  -0.000494 -16.249900   1.219910  -4.265400 -16.278200  -0.059898   0.004976 -10.841300  -0.039736  -0.005474 -13.194100  -0.343937   1.375720 -13.187000  -0.046562   0.011121  -8.782580  -0.031871   0.001789 -16.279800  -1.180580   3.972800 -24.474500  -0.060816   0.002450 -16.300000  -0.039061  -0.011120   5.821440   5.888810   4.536940  53.571800 -25.257300  17.250200 -25.809300 -14.577300  27.607600 -10.849100  34.023800 -15.021500 -43.746100  24.772400  58.081000  14.081100  -0.013267  -0.008806   2.040550  -0.004974  -0.002262  14.753300  -0.529707  -1.989880  12.078500  -0.012497  -0.000374   8.454930  -0.005412  -0.003448  11.512200  -0.415966  -2.016660  11.519600  -0.007893  -0.003114   7.672070  -0.011661   0.000000  13.325600  -0.954065  -3.997210  13.359200  -0.010682   0.000700   8.897220  -0.004021  -0.001216  15.919900  -2.392600  -8.307120  24.141800  -0.017872   0.008186  16.078400  -0.004682   0.003465  -2.134020  16.952800   2.926990  -1.069030   1.020100   9.548670  -1.472010  -4.057610   8.293130   0.000000   0.000000  -0.000000   0.991662  13.052600  -8.314260  -2.902220  12.857400  -8.725690  -6.468220  -4.343030   2.459280   0.000000   0.000000   0.000000
  4.890760  89.828500   0.482617  -1.325220 -16.435100  -0.719379  -0.968623   8.837820   2.065560  -2.305280  17.632700   4.363230  -2.834750   0.834930   0.041105  -4.660410   1.680490   4.474570  -1.949130   1.866960   2.182220 -56.297500 -18.627900 -14.645500  29.046100  -9.579980 -48.990700   9.592580  31.692000  -1.523820  48.343900  38.245000 -77.258300 -20.864500  -0.010091   0.027360  -5.432220   0.000425   0.012896 -16.693300   1.726520  -5.944600 -13.720500  -0.057941   0.021200  -9.604320  -0.042773   0.005625 -17.803600   1.731040  -5.399020 -17.951800  -0.069241   0.019986 -11.955900  -0.048529   0.001011 -14.468000  -0.079852   0.242563 -14.465100  -0.054712   0.024621  -9.633790  -0.039311   0.009127 -17.350400  -1.015600   3.119870 -26.075100  -0.078669   0.019291 -17.366000  -0.054069  -0.006697   5.962800   5.641200   4.576660  53.479400 -24.180100  16.861000 -25.241400 -14.531000  27.613800 -11.053200  33.495000 -15.094800 -43.231400  24.482800  58.397600  14.782200  -0.015963  -0.012804   2.391090  -0.005495  -0.002337  15.476000  -0.472127  -1.667020  12.667100  -0.014146  -0.000460   8.867010  -0.005724  -0.003447  12.085300  -0.369934  -1.676030  12.089600  -0.014987  -0.003251   8.051670  -0.012309   0.000051  14.090200  -0.960177  -3.789580  14.122100  -0.011033   0.000444   9.405300  -0.004223  -0.001096  16.826200  -2.438000  -7.974370  25.494800  -0.018507   0.008828  16.979500  -0.005235   0.003475  -2.091860  16.708000   2.857350  -1.078770   0.926470   9.472410  -1.457470  -3.996570   8.360540  -0.000000   0.000000   0.000000   1.034710  12.807800  -8.338910  -2.938890  12.774600  -8.716300  -6.488600  -4.221650   2.416390  -0.000000   0.000000   0.000000
